<?xml version="1.0" standalone="no"?>
<!DOCTYPE svg PUBLIC "-//W3C//DTD SVG 20010904//EN"
 "http://www.w3.org/TR/2001/REC-SVG-20010904/DTD/svg10.dtd">
<svg version="1.0" xmlns="http://www.w3.org/2000/svg"
 width="1024.000000pt" height="1024.000000pt" viewBox="0 0 1024.000000 1024.000000"
 preserveAspectRatio="xMidYMid meet">
<metadata>
Created by potrace 1.11, written by Peter Selinger 2001-2013
</metadata>
<g transform="translate(0.000000,1024.000000) scale(0.100000,-0.100000)"
fill="#000000" stroke="none">
<path d="M5650 8220 c0 -13 -7 -20 -20 -20 -17 0 -20 -7 -20 -50 0 -47 -2 -50
-25 -50 -23 0 -25 -4 -25 -45 0 -38 -3 -45 -20 -45 -13 0 -20 -7 -20 -20 0
-15 -7 -20 -25 -20 -23 0 -25 -4 -25 -45 0 -41 -2 -45 -25 -45 -23 0 -25 -3
-25 -50 0 -43 -3 -50 -20 -50 -13 0 -20 -7 -20 -20 0 -15 -7 -20 -25 -20 -20
0 -25 -5 -25 -25 0 -18 -5 -25 -20 -25 -17 0 -20 -7 -20 -45 0 -41 -2 -45 -25
-45 -18 0 -25 -5 -25 -20 0 -13 -7 -20 -20 -20 -15 0 -20 -7 -20 -25 0 -20 -5
-25 -25 -25 -20 0 -25 -5 -25 -25 0 -20 -5 -25 -25 -25 -18 0 -25 -5 -25 -20
0 -13 -7 -20 -20 -20 -15 0 -20 -7 -20 -25 0 -20 -5 -25 -25 -25 -18 0 -25 -5
-25 -20 0 -13 -7 -20 -20 -20 -15 0 -20 -7 -20 -25 0 -20 -5 -25 -25 -25 -18
0 -25 -5 -25 -20 0 -13 -7 -20 -20 -20 -15 0 -20 -7 -20 -25 0 -23 -3 -25 -50
-25 -47 0 -50 -2 -50 -25 0 -18 -5 -25 -20 -25 -13 0 -20 -7 -20 -20 0 -17 -7
-20 -45 -20 -41 0 -45 -2 -45 -25 0 -23 -4 -25 -45 -25 -38 0 -45 -3 -45 -20
0 -17 -7 -20 -50 -20 -47 0 -50 -2 -50 -25 0 -18 -5 -25 -20 -25 -13 0 -20 -7
-20 -20 0 -15 -7 -20 -25 -20 -20 0 -25 -5 -25 -25 0 -18 -5 -25 -20 -25 -15
0 -20 -7 -20 -25 0 -20 -5 -25 -25 -25 -18 0 -25 -5 -25 -20 0 -13 -7 -20 -20
-20 -15 0 -20 -7 -20 -25 0 -20 -5 -25 -25 -25 -18 0 -25 -5 -25 -20 0 -15 -7
-20 -25 -20 -23 0 -25 -4 -25 -45 0 -38 -3 -45 -20 -45 -15 0 -20 -7 -20 -25
0 -20 -5 -25 -25 -25 -20 0 -25 -5 -25 -25 0 -18 -5 -25 -20 -25 -13 0 -20 -7
-20 -20 0 -15 -7 -20 -25 -20 -20 0 -25 -5 -25 -25 0 -18 -5 -25 -20 -25 -13
0 -20 -7 -20 -20 0 -15 -7 -20 -25 -20 -20 0 -25 -5 -25 -25 0 -23 -4 -25 -45
-25 -38 0 -45 -3 -45 -20 0 -15 -7 -20 -25 -20 -20 0 -25 -5 -25 -25 0 -18 -5
-25 -20 -25 -15 0 -20 -7 -20 -25 0 -23 -4 -25 -45 -25 -38 0 -45 -3 -45 -20
0 -15 -7 -20 -25 -20 -20 0 -25 -5 -25 -25 0 -23 -4 -25 -45 -25 -38 0 -45 -3
-45 -20 0 -17 -7 -20 -45 -20 -41 0 -45 -2 -45 -25 0 -24 -2 -25 -70 -25 -63
0 -70 -2 -70 -20 0 -17 -7 -20 -45 -20 -41 0 -45 -2 -45 -25 0 -24 -2 -25 -70
-25 -68 0 -70 -1 -70 -25 0 -18 -5 -25 -20 -25 -13 0 -20 -7 -20 -20 0 -15 -7
-20 -25 -20 l-25 0 0 -115 0 -115 25 0 c23 0 25 -4 25 -45 0 -38 3 -45 20 -45
15 0 20 -7 20 -25 0 -20 5 -25 25 -25 18 0 25 -5 25 -20 0 -13 7 -20 20 -20
15 0 20 -7 20 -25 0 -20 5 -25 25 -25 18 0 25 -5 25 -20 0 -13 7 -20 20 -20
15 0 20 -7 20 -25 0 -20 5 -25 25 -25 20 0 25 -5 25 -25 0 -23 4 -25 45 -25
38 0 45 -3 45 -20 0 -17 7 -20 45 -20 41 0 45 -2 45 -25 0 -23 4 -25 45 -25
41 0 45 2 45 25 0 18 -5 25 -20 25 -19 0 -20 7 -20 115 l0 115 -25 0 c-18 0
-25 5 -25 20 0 15 7 20 25 20 20 0 25 5 25 25 0 18 5 25 20 25 15 0 20 -7 20
-25 0 -20 5 -25 25 -25 18 0 25 -5 25 -20 0 -17 7 -20 45 -20 41 0 45 -2 45
-25 0 -25 1 -25 90 -25 83 0 90 -1 90 -20 0 -17 7 -20 50 -20 43 0 50 3 50 20
0 15 -7 20 -25 20 -20 0 -25 5 -25 25 0 20 -5 25 -25 25 -18 0 -25 5 -25 20 0
13 -7 20 -20 20 -19 0 -20 7 -20 95 0 88 1 95 20 95 15 0 20 -7 20 -25 0 -23
3 -25 50 -25 47 0 50 -2 50 -25 0 -24 2 -25 65 -25 58 0 65 -2 65 -20 0 -18 7
-20 70 -20 63 0 70 2 70 20 0 15 -7 20 -25 20 -20 0 -25 5 -25 25 0 18 -5 25
-20 25 -19 0 -20 7 -20 115 l0 115 230 0 230 0 0 -25 0 -25 110 0 c103 0 110
-1 110 -20 0 -15 7 -20 25 -20 20 0 25 -5 25 -25 0 -20 -5 -25 -25 -25 -18 0
-25 -5 -25 -20 0 -17 -7 -20 -45 -20 -41 0 -45 -2 -45 -25 0 -23 -4 -25 -45
-25 -41 0 -45 -2 -45 -25 0 -23 -4 -25 -45 -25 -38 0 -45 -3 -45 -20 0 -15 -7
-20 -25 -20 -20 0 -25 -5 -25 -25 0 -23 -4 -25 -45 -25 -38 0 -45 -3 -45 -20
0 -13 -7 -20 -20 -20 -15 0 -20 -7 -20 -25 0 -20 -5 -25 -25 -25 -18 0 -25 -5
-25 -20 0 -13 -7 -20 -20 -20 -15 0 -20 -7 -20 -25 0 -23 -3 -25 -50 -25 -47
0 -50 -2 -50 -25 0 -18 -5 -25 -20 -25 -13 0 -20 -7 -20 -20 0 -19 -7 -20
-140 -20 l-140 0 0 -45 0 -45 50 0 50 0 0 -45 0 -45 -210 0 c-203 0 -210 1
-210 20 0 18 -7 20 -65 20 -58 0 -65 -2 -65 -20 0 -13 7 -20 20 -20 17 0 20
-7 20 -45 0 -41 2 -45 25 -45 20 0 25 -5 25 -25 0 -18 5 -25 20 -25 15 0 20
-7 20 -25 0 -20 5 -25 25 -25 18 0 25 -5 25 -20 0 -15 7 -20 25 -20 20 0 25
-5 25 -25 0 -23 4 -25 45 -25 38 0 45 -3 45 -20 0 -19 7 -20 160 -20 153 0
160 1 160 20 0 17 7 20 45 20 41 0 45 2 45 25 0 18 5 25 20 25 13 0 20 7 20
20 0 15 7 20 25 20 20 0 25 5 25 25 0 20 5 25 25 25 23 0 25 4 25 45 0 38 3
45 20 45 15 0 20 7 20 25 0 20 5 25 25 25 23 0 25 4 25 45 0 38 3 45 20 45 13
0 20 7 20 20 0 15 7 20 25 20 20 0 25 5 25 25 0 23 4 25 45 25 38 0 45 3 45
20 0 15 7 20 25 20 20 0 25 5 25 25 0 23 4 25 45 25 41 0 45 2 45 25 0 23 4
25 45 25 38 0 45 3 45 20 0 19 7 20 90 20 89 0 90 0 90 25 l0 25 115 0 c108 0
115 1 115 20 0 19 7 20 185 20 178 0 185 -1 185 -20 0 -13 7 -20 20 -20 15 0
20 -7 20 -25 0 -23 4 -25 45 -25 l45 0 0 -45 c0 -41 2 -45 25 -45 20 0 25 -5
25 -25 0 -18 5 -25 20 -25 13 0 20 -7 20 -20 0 -15 7 -20 25 -20 24 0 25 -2
25 -70 0 -68 1 -70 25 -70 l25 0 0 -205 0 -205 -25 0 c-23 0 -25 -4 -25 -45 0
-41 -2 -45 -25 -45 -23 0 -25 -4 -25 -45 0 -38 -3 -45 -20 -45 -17 0 -20 -7
-20 -45 0 -41 -2 -45 -25 -45 -20 0 -25 -5 -25 -25 0 -18 -5 -25 -20 -25 -13
0 -20 -7 -20 -20 0 -15 -7 -20 -25 -20 -20 0 -25 -5 -25 -25 0 -18 -5 -25 -20
-25 -15 0 -20 -7 -20 -25 0 -20 -5 -25 -25 -25 -18 0 -25 -5 -25 -20 0 -15 -7
-20 -25 -20 -20 0 -25 -5 -25 -25 0 -23 -4 -25 -45 -25 -38 0 -45 -3 -45 -20
0 -17 -7 -20 -45 -20 -41 0 -45 -2 -45 -25 0 -23 -4 -25 -45 -25 -38 0 -45 -3
-45 -20 0 -18 -7 -20 -70 -20 -68 0 -70 -1 -70 -25 0 -24 -2 -25 -65 -25 -63
0 -65 -1 -65 -25 0 -24 -2 -25 -70 -25 -63 0 -70 -2 -70 -20 0 -19 -7 -20 -90
-20 -89 0 -90 0 -90 -25 0 -25 0 -25 -95 -25 -88 0 -95 -1 -95 -20 0 -18 -7
-20 -65 -20 -63 0 -65 -1 -65 -25 0 -25 0 -25 -95 -25 -88 0 -95 -1 -95 -20 0
-19 -7 -20 -115 -20 l-115 0 0 -25 0 -25 -110 0 -110 0 0 -25 0 -25 -115 0
c-108 0 -115 -1 -115 -20 0 -19 -7 -20 -140 -20 l-140 0 0 -25 c0 -25 -1 -25
-90 -25 -83 0 -90 -1 -90 -20 0 -18 -7 -20 -70 -20 -68 0 -70 -1 -70 -25 0
-23 -4 -25 -45 -25 -38 0 -45 -3 -45 -20 0 -17 -7 -20 -45 -20 -41 0 -45 -2
-45 -25 0 -23 -4 -25 -45 -25 -41 0 -45 -2 -45 -25 0 -20 -5 -25 -25 -25 -18
0 -25 -5 -25 -20 0 -17 -7 -20 -45 -20 -41 0 -45 -2 -45 -25 0 -18 -5 -25 -20
-25 -13 0 -20 -7 -20 -20 0 -15 -7 -20 -25 -20 -20 0 -25 -5 -25 -25 0 -20 -5
-25 -25 -25 -18 0 -25 -5 -25 -20 0 -13 -7 -20 -20 -20 -15 0 -20 -7 -20 -25
0 -20 -5 -25 -25 -25 -20 0 -25 -5 -25 -25 0 -18 -5 -25 -20 -25 -13 0 -20 -7
-20 -20 0 -15 -7 -20 -25 -20 -20 0 -25 -5 -25 -25 0 -18 -5 -25 -20 -25 -13
0 -20 -7 -20 -20 0 -15 -7 -20 -25 -20 -23 0 -25 -4 -25 -45 0 -41 -2 -45 -25
-45 -20 0 -25 -5 -25 -25 0 -18 -5 -25 -20 -25 -17 0 -20 -7 -20 -45 0 -41 -2
-45 -25 -45 -23 0 -25 -4 -25 -45 0 -38 -3 -45 -20 -45 -17 0 -20 -7 -20 -45
0 -41 -2 -45 -25 -45 -24 0 -25 -2 -25 -70 0 -63 -2 -70 -20 -70 -18 0 -20 -7
-20 -70 0 -68 -1 -70 -25 -70 -18 0 -25 -5 -25 -20 0 -15 7 -20 25 -20 20 0
25 -5 25 -25 0 -18 5 -25 20 -25 15 0 20 7 20 25 0 23 4 25 45 25 38 0 45 3
45 20 0 17 7 20 45 20 41 0 45 2 45 25 0 23 3 25 50 25 43 0 50 3 50 20 0 18
7 20 65 20 63 0 65 1 65 25 0 24 2 25 70 25 63 0 70 2 70 20 0 19 7 20 115 20
l115 0 0 25 0 25 570 0 570 0 0 -25 0 -25 640 0 640 0 0 25 0 25 115 0 115 0
0 25 c0 25 1 25 90 25 83 0 90 1 90 20 0 17 7 20 45 20 41 0 45 2 45 25 0 24
2 25 70 25 63 0 70 2 70 20 0 17 7 20 45 20 41 0 45 2 45 25 0 20 5 25 25 25
18 0 25 5 25 20 0 17 7 20 45 20 41 0 45 2 45 25 0 23 4 25 45 25 41 0 45 2
45 25 0 20 5 25 25 25 18 0 25 5 25 20 0 13 7 20 20 20 15 0 20 7 20 25 0 20
5 25 25 25 18 0 25 5 25 20 0 13 7 20 20 20 15 0 20 7 20 25 0 20 5 25 25 25
18 0 25 5 25 20 0 15 7 20 25 20 20 0 25 5 25 25 0 18 5 25 20 25 15 0 20 7
20 25 0 20 5 25 25 25 24 0 25 -2 25 -70 0 -68 -1 -70 -25 -70 -24 0 -25 -2
-25 -70 0 -63 -2 -70 -20 -70 -17 0 -20 -7 -20 -45 0 -41 -2 -45 -25 -45 -20
0 -25 -5 -25 -25 0 -20 -5 -25 -25 -25 -23 0 -25 -4 -25 -45 0 -38 -3 -45 -20
-45 -13 0 -20 -7 -20 -20 0 -15 -7 -20 -25 -20 -23 0 -25 -4 -25 -45 0 -38 -3
-45 -20 -45 -15 0 -20 -7 -20 -25 0 -20 -5 -25 -25 -25 -23 0 -25 -4 -25 -45
0 -38 -3 -45 -20 -45 -15 0 -20 -7 -20 -25 0 -20 -5 -25 -25 -25 -18 0 -25 -5
-25 -20 0 -17 7 -20 45 -20 38 0 45 3 45 20 0 17 7 20 45 20 41 0 45 2 45 25
0 23 4 25 45 25 38 0 45 3 45 20 0 15 7 20 25 20 20 0 25 5 25 25 0 20 5 25
25 25 20 0 25 5 25 25 0 23 4 25 45 25 38 0 45 3 45 20 0 13 7 20 20 20 15 0
20 7 20 25 0 20 5 25 25 25 23 0 25 4 25 45 0 38 3 45 20 45 13 0 20 7 20 20
0 15 7 20 25 20 20 0 25 5 25 25 0 20 5 25 25 25 20 0 25 5 25 25 0 18 5 25
20 25 17 0 20 7 20 45 0 41 2 45 25 45 18 0 25 5 25 20 0 13 7 20 20 20 17 0
20 7 20 45 0 41 2 45 25 45 23 0 25 3 25 50 0 43 3 50 20 50 17 0 20 7 20 45
0 41 2 45 25 45 18 0 25 5 25 20 0 15 7 20 25 20 23 0 25 4 25 45 0 38 3 45
20 45 18 0 20 7 20 70 0 68 1 70 25 70 23 0 25 4 25 45 0 38 3 45 20 45 17 0
20 7 20 45 0 41 2 45 25 45 24 0 25 2 25 70 0 63 2 70 20 70 17 0 20 7 20 45
0 41 2 45 25 45 20 0 25 5 25 25 0 20 5 25 25 25 l25 0 0 -160 0 -160 -25 0
-25 0 0 -115 0 -115 -25 0 c-25 0 -25 -1 -25 -90 0 -83 -1 -90 -20 -90 -17 0
-20 -7 -20 -45 0 -41 -2 -45 -25 -45 -24 0 -25 -2 -25 -70 0 -63 -2 -70 -20
-70 -17 0 -20 -7 -20 -45 0 -38 3 -45 20 -45 13 0 20 7 20 20 0 15 7 20 25 20
20 0 25 5 25 25 0 18 5 25 20 25 13 0 20 7 20 20 0 15 7 20 25 20 23 0 25 3
25 50 0 47 2 50 25 50 18 0 25 5 25 20 0 13 7 20 20 20 17 0 20 7 20 45 0 41
2 45 25 45 20 0 25 5 25 25 0 18 5 25 20 25 17 0 20 7 20 45 0 41 2 45 25 45
23 0 25 4 25 45 0 38 3 45 20 45 17 0 20 7 20 45 0 41 2 45 25 45 23 0 25 4
25 45 0 41 2 45 25 45 24 0 25 2 25 70 0 63 2 70 20 70 18 0 20 7 20 70 0 68
1 70 25 70 l25 0 0 135 c0 128 1 135 20 135 19 0 20 7 20 230 0 223 -1 230
-20 230 -19 0 -20 7 -20 115 l0 115 -25 0 c-24 0 -25 2 -25 70 0 63 -2 70 -20
70 -18 0 -20 7 -20 65 0 63 -1 65 -25 65 -23 0 -25 4 -25 45 0 41 -2 45 -25
45 -23 0 -25 4 -25 45 0 38 -3 45 -20 45 -17 0 -20 7 -20 50 0 47 -2 50 -25
50 -18 0 -25 5 -25 20 0 13 -7 20 -20 20 -17 0 -20 7 -20 45 0 41 -2 45 -25
45 -20 0 -25 5 -25 25 0 24 2 25 70 25 68 0 70 -1 70 -25 0 -18 5 -25 20 -25
13 0 20 -7 20 -20 0 -17 7 -20 50 -20 47 0 50 -2 50 -25 0 -18 5 -25 20 -25
13 0 20 -7 20 -20 0 -15 7 -20 25 -20 20 0 25 -5 25 -25 0 -18 5 -25 20 -25
15 0 20 -7 20 -25 0 -20 5 -25 25 -25 23 0 25 -4 25 -45 0 -38 3 -45 20 -45
13 0 20 -7 20 -20 0 -15 7 -20 25 -20 20 0 25 -5 25 -25 0 -20 5 -25 25 -25
23 0 25 -4 25 -45 0 -38 3 -45 20 -45 13 0 20 -7 20 -20 0 -15 7 -20 25 -20
23 0 25 -3 25 -50 0 -43 3 -50 20 -50 13 0 20 -7 20 -20 0 -15 7 -20 25 -20
l25 0 0 160 0 160 -25 0 c-25 0 -25 1 -25 90 0 83 -1 90 -20 90 -17 0 -20 7
-20 45 0 41 -2 45 -25 45 -23 0 -25 4 -25 45 0 38 -3 45 -20 45 -17 0 -20 7
-20 45 0 41 -2 45 -25 45 -20 0 -25 5 -25 25 0 20 -5 25 -25 25 -20 0 -25 5
-25 25 0 18 -5 25 -20 25 -17 0 -20 7 -20 45 l0 45 -45 0 c-38 0 -45 3 -45 20
0 15 -7 20 -25 20 -20 0 -25 5 -25 25 0 18 -5 25 -20 25 -13 0 -20 7 -20 20 0
17 -7 20 -50 20 -47 0 -50 2 -50 25 0 23 -4 25 -45 25 -41 0 -45 2 -45 25 0
18 -5 25 -20 25 -13 0 -20 7 -20 20 0 17 -7 20 -45 20 -41 0 -45 2 -45 25 0
23 -3 25 -50 25 -43 0 -50 3 -50 20 0 13 -7 20 -20 20 -15 0 -20 7 -20 25 0
23 -4 25 -45 25 -38 0 -45 3 -45 20 0 15 -7 20 -25 20 -20 0 -25 5 -25 25 0
23 -4 25 -45 25 -41 0 -45 2 -45 25 0 20 -5 25 -25 25 -23 0 -25 4 -25 45 l0
45 50 0 c47 0 50 -2 50 -25 0 -24 2 -25 65 -25 58 0 65 -2 65 -20 0 -18 7 -20
70 -20 68 0 70 -1 70 -25 0 -24 2 -25 70 -25 68 0 70 -1 70 -25 0 -24 2 -25
65 -25 58 0 65 -2 65 -20 0 -19 7 -20 95 -20 95 0 95 0 95 -25 l0 -25 385 0
385 0 0 25 c0 23 3 25 50 25 43 0 50 3 50 20 0 18 7 20 65 20 63 0 65 1 65 25
0 20 5 25 25 25 20 0 25 5 25 25 0 23 4 25 45 25 l45 0 0 45 c0 41 -2 45 -25
45 -20 0 -25 -5 -25 -25 l0 -25 -225 0 -225 0 0 25 0 25 -115 0 c-108 0 -115
1 -115 20 0 19 -7 20 -90 20 -89 0 -90 0 -90 25 0 24 -2 25 -70 25 -63 0 -70
2 -70 20 0 18 -7 20 -70 20 -68 0 -70 1 -70 25 0 23 -4 25 -45 25 -41 0 -45 2
-45 25 0 23 -4 25 -45 25 -38 0 -45 3 -45 20 0 18 -7 20 -70 20 -68 0 -70 1
-70 25 0 24 -2 25 -70 25 -63 0 -70 2 -70 20 0 18 -7 20 -65 20 -63 0 -65 1
-65 25 0 24 -2 25 -70 25 -63 0 -70 2 -70 20 0 19 -7 20 -90 20 -89 0 -90 0
-90 25 l0 25 -115 0 -115 0 0 45 0 45 160 0 c153 0 160 -1 160 -20 0 -19 7
-20 115 -20 l115 0 0 -25 0 -25 115 0 115 0 0 -25 0 -25 135 0 c128 0 135 -1
135 -20 0 -19 7 -20 185 -20 178 0 185 1 185 20 0 19 7 20 110 20 l110 0 0 25
c0 25 0 25 95 25 95 0 95 0 95 25 0 23 4 25 45 25 38 0 45 3 45 20 0 17 7 20
45 20 41 0 45 2 45 25 0 23 4 25 45 25 38 0 45 3 45 20 0 17 7 20 45 20 41 0
45 2 45 25 0 20 5 25 25 25 18 0 25 5 25 20 0 13 7 20 20 20 15 0 20 7 20 25
0 23 3 25 50 25 l50 0 0 45 c0 38 3 45 20 45 15 0 20 7 20 25 0 20 5 25 25 25
18 0 25 5 25 20 0 13 7 20 20 20 17 0 20 7 20 45 0 41 2 45 25 45 25 0 25 0
25 95 l0 95 -45 0 c-41 0 -45 -2 -45 -25 0 -20 -5 -25 -25 -25 -18 0 -25 -5
-25 -20 0 -13 -7 -20 -20 -20 -15 0 -20 -7 -20 -25 0 -20 -5 -25 -25 -25 -20
0 -25 -5 -25 -25 0 -23 -4 -25 -45 -25 -38 0 -45 -3 -45 -20 0 -17 -7 -20 -45
-20 -41 0 -45 -2 -45 -25 0 -23 -4 -25 -45 -25 -38 0 -45 -3 -45 -20 0 -17 -7
-20 -50 -20 -47 0 -50 -2 -50 -25 0 -24 -2 -25 -65 -25 -58 0 -65 -2 -65 -20
0 -19 -7 -20 -95 -20 -95 0 -95 0 -95 -25 l0 -25 -365 0 -365 0 0 25 0 25
-115 0 c-108 0 -115 1 -115 20 0 19 -7 20 -135 20 l-135 0 0 25 0 25 -275 0
c-268 0 -275 0 -275 20 0 19 -7 20 -180 20 l-180 0 0 275 0 275 -25 0 c-25 0
-25 1 -25 90 0 89 0 90 -25 90 -24 0 -25 2 -25 70 l0 70 -45 0 c-38 0 -45 -3
-45 -20z m-820 -1530 c0 -89 0 -90 -25 -90 -23 0 -25 -3 -25 -50 0 -43 -3 -50
-20 -50 -13 0 -20 -7 -20 -20 0 -17 -7 -20 -45 -20 -41 0 -45 -2 -45 -25 0
-23 -4 -25 -45 -25 -38 0 -45 -3 -45 -20 0 -19 -7 -20 -95 -20 l-95 0 0 45 c0
41 2 45 25 45 18 0 25 5 25 20 0 13 7 20 20 20 15 0 20 7 20 25 0 20 5 25 25
25 20 0 25 5 25 25 0 20 5 25 25 25 18 0 25 5 25 20 0 13 7 20 20 20 15 0 20
7 20 25 0 20 5 25 25 25 18 0 25 5 25 20 0 13 7 20 20 20 15 0 20 7 20 25 0
24 2 25 70 25 l70 0 0 -90z"/>
</g>
</svg>
